# xmcd CD database file
#
# Track frame offsets:
#	150
#	19865
#	39005
#	56835
#	75260
#	92735
#	110170
#	131125
#	149655
#	171035
#
# Disc length: 2580 seconds
#
# Revision: 2
# Processed by: cddbd v1.5.2PL0 Copyright (c) Steve Scherf et al.
# Submitted via: CDex 1.70beta3
#
DISCID=830a120a
DTITLE=神山純一 - ほーら泣き止んだ ロイヤルモーツアルト編
DYEAR=2006
DGENRE=Symphony
TTITLE0=メヌエット K.334
TTITLE1=ピアノソナタ第11番第1楽章K.265
TTITLE2=きらきら星変奏曲K.265
TTITLE3=ピアノソナタ第15番K.545
TTITLE4=モーツアルトの子守唄
TTITLE5=ピアノ協奏曲第20番K.466
TTITLE6=トルコ行進曲 K.331
TTITLE7=交響曲第40番　K.550
TTITLE8=アイネ・クライネ・ナハトムジーク第2楽章 K.525
TTITLE9=ピアノ協奏曲 第21番 K.467
EXTD=YEAR: 2006
EXTT0=
EXTT1=
EXTT2=
EXTT3=
EXTT4=
EXTT5=
EXTT6=
EXTT7=
EXTT8=
EXTT9=
PLAYORDER=
